<?xml version="1.0" encoding="UTF-8" standalone="no"?>
<svg xmlns:rdf="http://www.w3.org/1999/02/22-rdf-syntax-ns#" xmlns="http://www.w3.org/2000/svg" enable-background="new 0 0 604 850" xml:space="preserve" height="100%" viewBox="0 0 604 850" width="100%" version="1.1" y="0px" x="0px" xmlns:cc="http://creativecommons.org/ns#" xmlns:dc="http://purl.org/dc/elements/1.1/"><g stroke-width=".0938"><rect height="100%" width="100%" stroke="#D00000" y="0" x="0" fill="#D00000"/><path d="m293.49 50.553c4.597-0.35 9.096-0.299 13.602 0.054-1.762 3.719-3.924 7.242-5.681 10.962 2.687-1.131 5.173-2.358 7.759-3.686 0.141 3.799 0.084 7.699-0.174 11.502-2.412-1.074-4.625-2.45-6.939-3.725 0.018 1.799 0.039 3.599 0.059 5.499 3.418 1.765 6.949 4.426 7.096 8.624 0.574 6.895-7.971 11.988-13.807 8.651-4.92-1.946-6.793-8.427-3.941-12.757 1.473-2.617 4.463-3.549 6.947-4.978-0.021-1.899-0.043-3.898-0.164-5.798-2.284 1.425-4.668 2.85-7.154 4.178-0.246-4.197-0.291-8.297 0.063-12.4 2.619 1.672 5.136 3.343 7.851 4.714-1.638-3.682-3.677-7.259-5.517-10.84z" stroke="#ffffff" fill="#ffffff"/><path d="m293.38 76.957c1.587-1.217 3.172-2.334 4.861-3.453 0.021 1.8 0.039 3.6-0.041 5.3-1.606-0.583-3.213-1.165-4.82-1.847z" stroke="#d00000" fill="#d00000"/><path d="m302.15 74.06c1.311 1.187 2.627 2.473 3.84 3.759-1.297 0.414-2.592 0.828-3.885 1.342-0.019-1.699-0.037-3.4 0.045-5.101z" stroke="#d00000" fill="#d00000"/><path d="m280.25 83.3c2.181-1.824 6.299-0.169 6.23 2.732 0.332 2.697-2.75 4.631-5.16 3.756-3.204-0.364-3.955-5.056-1.07-6.488z" stroke="#ffffff" fill="#ffffff"/><path d="m293.26 83.758c3.894-0.643 8.486-1.293 11.523 1.974-3.984 1.545-8.584 1.494-11.523-1.974z" stroke="#d00000" fill="#d00000"/></g><g stroke="#ffffff" stroke-width=".0938" fill="#ffffff"><path d="m312.25 82.85c2.775-2.33 7.52 1.319 5.652 4.54-1.07 2.812-5.869 3.064-6.902 0.076-1.217-1.589-0.139-3.599 1.25-4.616z"/><path d="m269.28 85.42c2.48-1.728 6.507 0.628 5.938 3.636-0.472 2.405-3.649 4.439-5.767 2.863-2.813-1.069-2.76-5.27-0.171-6.499z"/><path d="m324.28 85.82c3.383-1.339 7.24 3.521 3.865 5.958-1.578 2.018-4.785 1.554-6.008-0.533-1.621-1.883-0.052-4.802 2.143-5.425z"/><path d="m257.35 92.551c0.359-3.704 7.154-4.277 7.298-0.18 0.528 2.493-2.062 3.522-3.648 4.74-1.514-1.283-4.025-2.256-3.65-4.56z"/><path d="m334.43 90.009c1.988-1.021 5.303 0.143 5.229 2.544 0.738 3.29-3.74 5.54-6.062 3.265-2.316-1.274-1.357-4.985 0.833-5.809z"/><path d="m240.54 109.94c14.094-9.758 30.526-16.136 47.397-18.82 2.572 6.573 5.045 13.246 6.222 20.233-1.299 0.214-2.596 0.328-3.794 0.542-1.162-5.688-2.825-11.372-5.083-16.646-19.157 3.909-37.67 12.212-52.225 25.472-1.007-0.59-2.015-1.278-3.021-1.867 3.062-3.533 6.731-6.273 10.504-8.914z"/><path d="m297.54 91.513c4.376-2.148 7.556 5.115 2.872 6.666-4.279 1.848-7.154-4.819-2.872-6.666z"/><path d="m310.34 91.773c20.838 3.371 40.445 12.958 56.297 26.786-0.795 0.908-1.582 1.816-2.471 2.827-14.641-12.841-32.539-21.646-51.584-25.538-2.141 5.423-3.977 10.943-5.219 16.558-1.201-0.188-2.504-0.373-3.705-0.559 1.427-6.915 3.85-13.643 6.682-20.074z"/><path d="m248.7 96.545c-0.022-1.998 2.677-2.229 4.065-3.144 1.013 1.089 1.923 2.178 2.937 3.267-1.086 1.213-1.661 3.618-3.663 3.44-1.898 0.121-4.018-1.555-3.339-3.563z"/><path d="m343.69 95.508c1.793-0.322 4.191-0.746 5.113 1.243 1.316 1.486-0.053 4.302-1.951 4.422-1.994 0.622-3.217-1.265-4.527-2.251 0.391-0.802 0.973-2.51 1.365-3.414z"/><path d="m239.06 102.55c1.374-2.517 3.864-3.243 6.572-2.673 0.119 1.699 0.039 3.501-0.044 5.202-2.694 0.629-5.101-0.045-6.528-2.529z"/><path d="m295.07 102.94c1.372-2.716 3.862-3.342 6.669-2.674 0.02 1.702 0.037 3.401-0.043 5.203-2.694 0.628-5.198 0.056-6.626-2.529z"/><path d="m353.34 100.6c4.279-2.046 6.357 5.232 1.76 5.582-3.587 1.038-5.052-4.645-1.76-5.582z"/><path d="m232.89 105.72c1.901-0.021 3.809 0.656 5.42 1.739-0.788 1.108-1.475 2.318-2.364 3.326-1.4-0.084-2.705-0.569-4.01-0.856 0.285-1.403 0.571-2.805 0.954-4.209z"/><path d="m255.6 105.97c6.158 5.233 9.645 13.195 9.033 21.303 1.886-1.421 3.769-3.041 6.162-3.567 5.785-1.264 11.849 4.471 11.213 10.277 0.348 4.396-2.713 7.931-5.683 10.764-1.131-2.888-0.877-7.092-4.194-8.556-3.618-1.661-7.983 1.588-8.24 5.391-0.749 4.809 2.505 9.674 6.924 11.426 6.633 3.127 15.119 1.734 20.162-3.622 2.965-3.132 4.318-7.246 4.975-11.454-3.489 1.238-6.466 3.271-9.647 5.006-0.374-6.696-0.045-13.501 0.581-20.206 2.826 2.368 5.451 4.94 8.378 7.208-1.454-4.984-3.607-9.761-5.062-14.746 5.599-0.16 11.2-0.122 16.703 0.217-1.447 4.718-3.398 9.339-4.945 14.056 3.178-1.935 6.152-4.368 9.533-6.005 0.273 6.697 0.148 13.5-0.479 20.206-2.723-1.869-5.342-3.841-8.158-5.312 0.031 2.901 0.064 6 1.594 8.583 2.76 5.473 9.191 8.401 15.189 8.136 6.701-0.073 12.525-6.837 11.254-13.523-0.531-3.095-3.869-6.159-7.254-4.922-3.09 1.034-3.549 4.839-4.92 7.454-3.641-3.66-4.701-9.249-3.254-14.065 1.551-4.517 6.924-6.774 11.338-5.823 2.607 0.771 4.334 3.054 6.055 5.034-1.395-8.585 2.709-17.431 9.348-22.904 3.887 7.759 3.688 17.062-0.129 24.803 3.58-2.139 7.754-4.583 12.068-2.832 6.326 2.031 7.518 10.22 5.076 15.646-1.758 4.119-5.83 6.264-9.611 8.205 0.463-3.305 2.422-7.027 0.289-10.103-1.43-2.687-5.531-2.843-7.51-0.819-3.369 3.036-4.109 8.446-1.768 12.222 3.467 6.061 11.395 8.573 17.773 6.405 7.676-2.185 12.496-9.438 14.617-16.762-3.686 1.341-7.268 2.979-11.059 3.922 1.436-6.017 3.771-11.843 6.008-17.567 2.33 2.575 4.557 5.151 6.979 7.523-0.447-4.595-1.893-8.978-3.342-13.263 4.111 0.955 8.225 2.109 12.24 3.368-1.17 3.011-2.637 5.926-3.605 9.038-0.176 2.202 0.65 4.493 0.275 6.697-0.865 3.209-4.148 4.946-5.113 8.057-1.457 4.016-3.01 8.132-4.166 12.245 0.348 4.396 1.992 8.579 2.84 12.872-3.551 4.338-7.305 8.479-10.959 12.819-24.504-9.233-51.148-13.242-77.221-10.658-14.989 1.064-29.971 2.729-44.427 6.886-2.692 0.73-5.277 2.158-8.174 2.39-3.933-2.957-7.373-6.521-10.809-9.981-0.158-5.2 2.889-10.232 1.23-15.516-0.941-3.689-1.883-7.479-2.924-11.269-0.64-3.692-5.155-5.045-5.396-8.841 0.068-2.901 1.237-5.814 0.503-8.708-0.628-2.691-1.658-5.38-2.287-8.072 4.686-1.254 9.47-2.704 14.362-3.458-2.25 4.524-5.206 8.757-7.154 13.377 3.684-1.54 6.552-4.371 9.323-7.102 1.974 6.878 4.051 13.857 5.127 20.945-3.727-2.459-7.355-5.221-11.772-6.571 1.792 8.481 8.183 16.711 17.193 17.512 7.606 0.718 17.351-4.588 16.457-13.279 0.143-5.101-5.601-9.14-10.172-6.589-4.578 2.05-3.815 7.842-3.769 11.941-8.043-3.913-10.285-16.589-2.744-22.172 3.86-3.542 9.467-3.102 13.989-1.153-3.476-7.163-2.87-15.771 1.156-22.514z"/><path d="m361.61 106.61c1.494-0.315 2.9 0.47 4.307 0.854-0.385 1.404-0.867 2.91-1.352 4.316-1.004-0.09-2.904-0.17-3.807-0.259-0.115-1.698-0.841-3.792 0.852-4.911z"/><path d="m297.43 108.42c1.096-0.212 2.196-0.324 3.196-0.335 0.116 1.399 0.229 2.797 0.246 4.197-1.4 0.114-2.699 0.33-4.094 0.545-0.016-1.5-1.241-3.687 0.652-4.407z"/><path d="m224.99 114.81c1.173-2.314 3.162-3.537 5.769-2.864 0.016 1.501-0.069 2.9-0.151 4.401-1.999 0.223-4.005-0.356-5.618-1.537z"/><path d="m367.28 112.75c1.695-0.219 3.297-0.236 4.996-0.154 0.012 0.899 0.033 2.9 0.041 3.901-1.496 0.216-2.994 0.332-4.492 0.447-0.217-1.397-0.434-2.794-0.545-4.194z"/></g><g stroke="#d00000" stroke-width=".0938" fill="#d00000"><path d="m297.59 132.21c1.281-1.514 3.51 0.861 2.123 2.177-1.385 1.415-3.609-0.86-2.123-2.177z"/><path d="m220.22 145.16c-2.422-1.974-2.956-4.97-1.987-7.881 1.826 2.28 2.357 5.076 1.987 7.881z"/><path d="m376.85 138.05c0.916 1.589 1.236 3.386 1.455 5.183-1.09 0.713-2.285 1.427-3.375 2.138 0.17-2.602 0.844-5.01 1.92-7.321z"/><path d="m293.94 164.16c1.273-2.416 2.545-4.729 3.822-7.144 1.323 2.285 2.649 4.57 3.975 6.857-1.273 2.514-2.648 4.928-4.019 7.444-1.328-2.386-2.554-4.772-3.778-7.157z"/><path d="m279.48 159.21c1.505 0.383 3.011 0.867 4.418 1.451-0.69 1.108-1.377 2.214-2.063 3.324-1.004-0.39-1.91-0.78-2.913-1.169 0.187-1.203 0.374-2.402 0.558-3.606z"/><path d="m311.48 159.26c1.203-0.013 2.402 0.075 3.701 0.06 0.016 1.301 0.129 2.6 0.145 3.9-1.303 0.013-2.6 0.128-3.898 0.241-0.018-1.4-0.03-2.799 0.052-4.201z"/><path d="m259.1 160.74c5.172-2.657 14.901-0.062 13.378 7.153-2.422 7.029-14.11 8.256-17.98 1.797-1.741-3.78 1.218-7.514 4.602-8.95z"/><path d="m327.1 160.89c5.48-1.959 14.121 1.548 13.293 8.256-2.52 7.527-15.127 6.767-18.201 0.099-1.439-3.784 1.117-7.513 4.908-8.355z"/><path d="m241.55 165.53c2.003 0.377 3.118 1.664 3.738 3.558-1.094 0.413-2.189 0.925-3.283 1.437-0.406-0.496-1.415-1.385-1.92-1.878 0.39-0.807 1.074-2.313 1.465-3.117z"/><path d="m350.46 165.64c1.4 0.083 2.801 0.067 4.102 0.154 0.123 1.998-0.662 3.707-2.551 4.527-0.506-0.595-1.52-1.684-1.926-2.181 0.094-0.598 0.281-1.801 0.375-2.5z"/><path d="m280.28 168.7c1-0.111 2.101-0.123 3.2-0.236 0.41 0.897 0.819 1.692 1.227 2.589-0.592 0.606-1.285 1.213-1.878 1.82-0.905-0.29-1.908-0.68-2.813-0.97 0.087-1.101 0.179-2.101 0.264-3.203z"/><path d="m226.36 175.8c0.279-2.005 0.756-4.011 1.235-5.917 1.318 1.486 2.933 2.969 3.952 4.758 0.022 1.899-0.358 3.805-0.537 5.709-1.714-1.383-3.53-2.763-4.65-4.55z"/><path d="m309.42 172.29c0.688-1.007 1.379-2.114 2.066-3.123 0.803 0.392 2.412 1.274 3.219 1.665-0.785 1.309-1.574 2.519-2.361 3.728-0.805-0.593-2.219-1.678-2.924-2.27z"/><path d="m363.46 175.2c1.479-1.918 2.957-3.735 4.541-5.552 0.822 2.092 1.547 4.284 2.369 6.376-1.479 1.815-3.061 3.633-4.639 5.451-0.724-2.092-1.447-4.185-2.271-6.275z"/><path d="m241.65 175.33c0.997-0.31 1.992-0.722 2.989-1.032 0.506 0.595 1.622 1.882 2.129 2.576-1.288 1.013-2.68 1.831-4.275 2.348-0.213-0.999-0.632-2.895-0.843-3.892z"/><path d="m348.85 174.26c0.902 0.391 1.809 0.881 2.713 1.271 0.01 0.7 0.021 2 0.029 2.6-0.797 0.41-1.594 0.719-2.488 1.128-0.506-0.494-1.516-1.384-2.121-1.877 0.588-1.107 1.176-2.114 1.867-3.122z"/></g><path d="m247.97 185.66c13.467-3.148 27.258-3.998 40.949-4.947 19.393-0.712 39.1-0.128 57.953 4.768 5.018 1.345 10.434 2.986 14.08 6.946-3.557 4.238-9.25 4.902-14.238 5.956-10.086 1.61-20.377 2.223-30.572 2.634-20.497 0.423-41.2 0.25-61.534-2.929-6.414-1.129-13.325-2.154-18.571-6.397 2.655-4.031 7.643-4.985 11.933-6.031z" stroke="#ffffff" stroke-width=".0938" fill="#ffffff"/><g transform="translate(473.17 -147.27)" fill="#ffffff"><path d="m-257.24 419.37h15.259l-36.987 40.405 46.082 44.861h-16.724l-43.518-42.114v42.114h-12.207v-85.266h12.207v39.001l35.889-39.001z"/><path d="m-223.43 419.37h48.34v10.864h-36.133v26.001h34.912v10.925h-34.912v26.489h37.292v10.864h-49.5v-85.144z"/><path d="m-160.93 419.37h48.34v10.864h-36.133v26.001h34.912v10.925h-34.912v26.489h37.292v10.864h-49.5v-85.144z"/><path d="m-99.098 504.64v-85.388h27.039q12.207 0 19.47 6.5918 7.2632 6.5918 7.2632 17.7 0 7.4463-3.7231 13.184-3.7231 5.7373-10.193 8.3618-6.4697 2.5635-18.555 2.5635h-9.0332v36.987h-12.268zm24.902-74.524h-12.634v26.672h13.367q7.4463 0 11.475-3.479 4.0283-3.54 4.0283-10.071 0-13.123-16.235-13.123z"/></g><g transform="translate(446.92 -14.362)" fill="#ffffff"><path d="m-231.97 484.87v13.428q-13.428 7.3242-31.006 7.3242-14.282 0-24.231-5.7373-9.9487-5.7373-15.747-15.808t-5.7983-21.79q0-18.616 13.245-31.311 13.306-12.695 32.776-12.695 13.428 0 29.846 7.019v13.123q-14.954-8.5449-29.236-8.5449-14.648 0-24.353 9.2774-9.6436 9.2163-9.6436 23.132 0 14.038 9.5215 23.071 9.5215 9.0332 24.353 9.0332 15.503 0 30.273-9.5215z"/><path d="m-186.32 418.89h8.606l38.147 85.754h-12.512l-11.353-25.269h-36.255l-10.742 25.269h-12.512l36.621-85.754zm17.883 49.622-13.733-30.884-12.756 30.884h26.489z"/><path d="m-129.92 419.37h12.207v74.158h38.391v11.108h-50.598v-85.266z"/><path d="m-0.77051 419.37h11.353v85.266h-12.268v-66.345l-26.245 32.959h-2.2583l-26.489-32.959v66.345h-12.207v-85.266h11.475l28.381 35.034 28.259-35.034z"/></g><g transform="translate(548.12 139.42)" fill="#ffffff"><path d="m-297.28 398.38h4.1309l18.311 41.162h-6.0059l-5.4492-12.129h-17.402l-5.1562 12.129h-6.0059l17.578-41.162zm8.584 23.818-6.5918-14.824-6.123 14.824h12.715z"/><path d="m-237.75 398.61h5.5664v40.928h-5.0391l-27.363-31.494v31.494h-5.5078v-40.928h4.7461l27.598 31.758v-31.758z"/><path d="m-223.33 439.48v-40.869h13.799q8.3496 0 13.213 2.5195 4.8633 2.4902 7.7344 7.3535t2.8711 10.605q0 4.1016-1.582 7.8516t-4.5117 6.5918q-2.9883 2.9297-6.9434 4.4238-2.3144 0.90821-4.248 1.2305-1.9336 0.29297-7.3828 0.29297h-12.949zm13.184-35.654h-7.3242v30.439h7.5q4.3945 0 6.8262-0.58594 2.4316-0.61523 4.043-1.5234 1.6406-0.9375 2.9883-2.2852 4.3359-4.3945 4.3359-11.104 0-6.5918-4.4531-10.752-1.6406-1.5527-3.7793-2.5488-2.1094-0.99609-4.0137-1.3184-1.9043-0.32226-6.123-0.32226z"/></g><g transform="translate(402.91 230.72)" fill="#ffffff"><path d="m-305.34 419.37h45.471v10.864h-33.264v23.804h33.264v10.864h-33.264v39.734h-12.207v-85.266z"/><path d="m-225.62 418.89h8.606l38.147 85.754h-12.512l-11.353-25.269h-36.255l-10.742 25.269h-12.512l36.621-85.754zm17.883 49.622-13.733-30.884-12.756 30.884h26.489z"/><path d="m-140.36 504.64h-28.87v-85.266h22.339q10.559 0 16.479 2.8687 5.9204 2.8076 9.0332 7.8125 3.1128 4.9438 3.1128 11.475 0 12.573-13 18.005 9.3384 1.77 14.832 7.6904 5.5542 5.9204 5.5542 14.16 0 6.5308-3.3569 11.658-3.3569 5.127-9.8877 8.3618-6.4697 3.2349-16.235 3.2349zm-6.1646-74.402h-10.498v25.635h8.1177q9.7656 0 13.855-3.7232 4.1504-3.7231 4.1504-9.6436 0-12.268-15.625-12.268zm0.91553 36.499h-11.414v27.039h12.024q10.01 0 13.55-1.5259 3.6011-1.5869 5.7373-4.8828 2.1973-3.2959 2.1973-7.0801 0-3.9062-2.3193-7.1411-2.2583-3.2349-6.4697-4.8218t-13.306-1.5869z"/><path d="m-98.793 419.37h12.207v85.266h-12.207v-85.266z"/><path d="m-40.443 418.89h8.606l38.147 85.754h-12.512l-11.353-25.269h-36.255l-10.742 25.269h-12.512l36.621-85.754zm17.883 49.622-13.733-30.884-12.756 30.884h26.489zm0.91553-73.73-13.794 18.311h-6.8359l8.2397-18.311h12.39z"/><path d="m83.58 419.37h11.597v85.266h-10.498l-57.007-65.613v65.613h-11.475v-85.266h9.8877l57.495 66.162v-66.162z"/></g></svg>
